<svg width="18" height="18" viewBox="0 0 18 18" version="1.1" xmlns="http://www.w3.org/2000/svg" xmlns:xlink="http://www.w3.org/1999/xlink">
<title>linkedin</title>
<desc>Created using Figma</desc>
<g id="Canvas" transform="translate(-2273 -230)">
<g id="linkedin">
<g id="Vector">
<use xlink:href="#path0_fill" transform="translate(2273 230)" fill="#E89441"/>
</g>
</g>
</g>
<defs>
<path id="path0_fill" d="M 18 18L 14 18L 14 11.25C 14 10.19 12.81 9.31 11.75 9.31C 10.69 9.31 10 10.19 10 11.25L 10 18L 6 18L 6 6L 10 6L 10 8C 10.66 6.93 12.36 6.24 13.5 6.24C 16 6.24 18 8.28 18 10.75L 18 18ZM 4 18L 0 18L 0 6L 4 6L 4 18ZM 2 0C 2.53043 4.44089e-16 3.03914 0.210714 3.41421 0.585786C 3.78929 0.960859 4 1.46957 4 2C 4 2.53043 3.78929 3.03914 3.41421 3.41421C 3.03914 3.78929 2.53043 4 2 4C 1.46957 4 0.960859 3.78929 0.585786 3.41421C 0.210714 3.03914 4.44089e-16 2.53043 0 2C 0 1.46957 0.210714 0.960859 0.585786 0.585786C 0.960859 0.210714 1.46957 4.44089e-16 2 0Z"/>
</defs>
</svg>
