<svg width="12" height="12" viewBox="0 0 12 12" version="1.1" xmlns="http://www.w3.org/2000/svg" xmlns:xlink="http://www.w3.org/1999/xlink">
<title>little-facebook-logo</title>
<desc>Created using Figma</desc>
<g id="Canvas" transform="translate(-2372 -230)">
<g id="little-facebook-logo">
<g id="Vector">
<use xlink:href="#path0_fill" transform="translate(2372 230)" fill="#E89441"/>
</g>
</g>
</g>
<defs>
<path id="path0_fill" d="M 11.5443 0L 10.1134 0C 6.13622 0 2.90062 1.46847 2.90062 3.27343L 2.90062 4.65492L 0.455886 4.65492C 0.204146 4.65492 7.23451e-08 4.74757 7.23451e-08 4.86182L 7.23451e-08 6.51699C 7.23451e-08 6.63124 0.204146 6.72389 0.455886 6.72389L 2.90043 6.72389L 2.90043 11.7931C 2.90043 11.9074 3.10458 12 3.35632 12L 7.0034 12C 7.25514 12 7.45929 11.9074 7.45929 11.7931L 7.45929 6.72389L 11.0869 6.72389C 11.3386 6.72389 11.5427 6.63124 11.5427 6.51699L 11.5427 4.86182C 11.5427 4.74757 11.3386 4.65492 11.0869 4.65492L 7.45929 4.65492L 7.45929 3.27343C 7.45929 2.6093 8.64988 2.06897 10.1132 2.06897L 11.5441 2.06897C 11.7959 2.06897 12 1.97632 12 1.86207L 12 0.206897C 12.0002 0.0926483 11.796 0 11.5443 0Z"/>
</defs>
</svg>
