<svg width="20" height="20" viewBox="0 0 20 20" version="1.1" xmlns="http://www.w3.org/2000/svg" xmlns:xlink="http://www.w3.org/1999/xlink">
<title>google</title>
<desc>Created using Figma</desc>
<g id="Canvas" transform="translate(-2464 -229)">
<g id="google">
<g id="Vector">
<use xlink:href="#path0_fill" transform="translate(2464 229)" fill="#E89441"/>
</g>
</g>
</g>
<defs>
<path id="path0_fill" d="M 19.32 9.1L 10.15 9.1L 10.15 11.83L 16.66 11.83C 16.33 15.64 13.16 17.27 10.16 17.27C 6.33 17.27 2.97 14.25 2.97 10C 2.97 5.9 6.17 2.73 10.17 2.73C 13.26 2.73 15.07 4.7 15.07 4.7L 16.97 2.72C 16.97 2.72 14.53 0 10.07 0C 4.39 0 -2.86102e-08 4.8 -2.86102e-08 10C -2.86102e-08 15.05 4.13 20 10.22 20C 15.57 20 19.47 16.33 19.47 10.91C 19.47 9.76 19.32 9.1 19.32 9.1Z"/>
</defs>
</svg>
